<?xml version="1.0" standalone="no"?>
<!DOCTYPE svg PUBLIC "-//W3C//DTD SVG 20010904//EN"
 "http://www.w3.org/TR/2001/REC-SVG-20010904/DTD/svg10.dtd">
<svg version="1.0" xmlns="http://www.w3.org/2000/svg"
 width="416.000000pt" height="516.000000pt" viewBox="0 0 416.000000 516.000000"
 preserveAspectRatio="xMidYMid meet">

<g transform="translate(0.000000,516.000000) scale(0.100000,-0.100000)"
fill="#000000" stroke="none">
<path d="M992 4552 l-892 -606 2 -920 3 -920 970 -667 c534 -367 972 -668 975
-668 3 -1 446 300 985 667 l980 668 3 920 2 920 -862 579 c-474 319 -880 593
-904 608 -29 20 -52 27 -74 25 -28 -3 75 -75 884 -618 l916 -615 0 -256 0
-257 -440 -328 c-343 -257 -439 -333 -437 -349 1 -14 129 -105 425 -306 233
-157 427 -290 433 -296 6 -6 -71 -64 -207 -157 -119 -81 -222 -150 -229 -152
-7 -3 -187 106 -401 243 -235 149 -399 247 -414 248 l-25 0 -5 -537 -5 -537
-300 -205 -300 -204 -3 2164 -2 2164 -93 0 -92 -1 -893 -607z m386 190 c-13
-21 -90 -149 -173 -285 -82 -136 -154 -247 -160 -247 -19 0 -282 115 -285 124
-2 7 622 443 638 445 2 1 -7 -16 -20 -37z m45 -1699 c8 -785 9 -1793 3 -1793
-2 0 -153 102 -335 228 l-332 227 -6 846 c-3 496 -2 848 3 851 5 3 83 -28 173
-68 89 -41 167 -72 172 -69 4 3 74 113 155 245 81 132 150 240 154 240 4 0 10
-318 13 -707z"/>
<path d="M2696 4097 c-15 -11 -16 -55 -14 -492 l3 -480 23 0 c35 0 682 474
682 500 0 15 -82 77 -327 245 -179 124 -331 228 -338 232 -7 4 -20 2 -29 -5z"/>
</g>
</svg>
